<svg width="99" height="39" viewBox="0 0 99 39" fill="none" xmlns="http://www.w3.org/2000/svg">
<path d="M9.08107 15.4559C10.8998 15.4559 12.4186 16.7496 12.7654 18.4652H17.317C16.9373 14.2465 13.3936 10.9418 9.08107 10.9418C7.72638 10.9418 6.44668 11.2699 5.32168 11.8465V6.42773H0.807617V18.4605H5.3967C5.74357 16.7449 7.26232 15.4512 9.08107 15.4512V15.4559Z" fill="#432885"/>
<path d="M9.08164 22.9752C7.26289 22.9752 5.74415 21.6814 5.39728 19.9658H0.845703C1.22539 24.1846 4.76914 27.4893 9.08164 27.4893C13.3941 27.4893 16.9379 24.1846 17.3176 19.9658H12.766C12.4191 21.6814 10.9004 22.9752 9.08164 22.9752Z" fill="#432885"/>
<path d="M24.1283 11.6973H19.6143V18.466H24.1283V11.6973Z" fill="#432885"/>
<path d="M24.1283 19.9707H19.6143V26.7395H24.1283V19.9707Z" fill="#432885"/>
<path d="M34.6568 15.4564C36.4756 15.4564 37.9943 16.7502 38.3412 18.4658H42.8928C42.5131 14.2471 38.9693 10.9424 34.6568 10.9424C30.3443 10.9424 26.8006 14.2471 26.4209 18.4658H30.9725C31.3193 16.7502 32.8381 15.4564 34.6568 15.4564Z" fill="#432885"/>
<path d="M34.6563 22.9752C32.8375 22.9752 31.3188 21.6814 30.9719 19.9658H26.4203C26.8 24.1846 30.3438 27.4893 34.6563 27.4893C36.7328 27.4893 38.4156 28.8346 38.4156 30.4986C38.4156 32.1627 36.7328 33.508 34.6563 33.508C32.5797 33.508 30.8969 32.1627 30.8969 30.4986H26.3828C26.3828 34.6518 30.0859 38.0221 34.6563 38.0221C39.2266 38.0221 42.9297 34.6564 42.9297 30.4986C42.9297 28.3939 41.9781 26.4908 40.4453 25.1268C41.8094 23.7908 42.7141 21.9814 42.8969 19.9705H38.3453C37.9984 21.6861 36.4797 22.9799 34.661 22.9799L34.6563 22.9752Z" fill="#432885"/>
<path d="M77.5279 19.9707C77.5279 22.877 75.1701 25.2348 72.2639 25.2348C69.3576 25.2348 66.9998 22.877 66.9998 19.9707V11.6973H64.7451V19.9707C64.7451 24.1238 68.1107 27.4941 72.2685 27.4941C76.4264 27.4941 79.792 24.1285 79.792 19.9707V11.6973H77.5373V19.9707H77.5279Z" fill="#432885"/>
<path d="M90.3105 10.9428C87.9387 10.9428 85.8012 11.9412 84.2918 13.5396V7.17871H82.0371V19.2115C82.0371 23.7818 85.7402 27.485 90.3105 27.485C94.8808 27.485 98.584 23.7818 98.584 19.2115C98.584 14.6412 94.8808 10.9381 90.3105 10.9381V10.9428ZM90.3105 25.235C86.9871 25.235 84.2918 22.5396 84.2918 19.2162C84.2918 15.8928 86.9871 13.1975 90.3105 13.1975C93.634 13.1975 96.3293 15.8928 96.3293 19.2162C96.3293 22.5396 93.634 25.235 90.3105 25.235Z" fill="#432885"/>
<path d="M54.9621 10.942C52.9137 10.942 51.0528 11.7623 49.6981 13.0936V7.18262H47.4434V26.7389H49.6981V18.4654C49.6981 15.5592 52.0559 13.2014 54.9621 13.2014C57.8684 13.2014 60.2262 15.5592 60.2262 18.4654V26.7389H62.4809V18.4654C62.4809 14.3123 59.1152 10.942 54.9574 10.942H54.9621Z" fill="#432885"/>
<path d="M21.8691 10.4404C23.2542 10.4404 24.377 9.31764 24.377 7.93262C24.377 6.54759 23.2542 5.4248 21.8691 5.4248C20.4841 5.4248 19.3613 6.54759 19.3613 7.93262C19.3613 9.31764 20.4841 10.4404 21.8691 10.4404Z" fill="#432885"/>
</svg>
