<?xml version="1.0" encoding="utf-8"?>
<!-- Generator: Adobe Illustrator 23.0.1, SVG Export Plug-In . SVG Version: 6.00 Build 0)  -->
<svg version="1.1" id="Layer_2" xmlns="http://www.w3.org/2000/svg" xmlns:xlink="http://www.w3.org/1999/xlink" x="0px" y="0px"
	 width="1135" height="270" viewBox="30 285 1135 270" preserveAspectRatio="xMidYMid meet" xml:space="preserve">
<style type="text/css">
	.st0{fill:none;stroke:#000000;stroke-width:0.3;stroke-linecap:square;stroke-linejoin:bevel;}
	.st1{fill:none;stroke:#000000;stroke-width:0.3;}
	.st2{fill:#008C4E;}
</style>
<symbol  id="Deleted_Symbol" viewBox="-66.84 -56.57 133.67 113.21">
	<g>
		<line class="st0" x1="12.03" y1="-1.15" x2="57.23" y2="-1.15"/>
		<line class="st0" x1="11.87" y1="20.55" x2="57.07" y2="20.55"/>
		<line class="st0" x1="55.12" y1="18.78" x2="55.25" y2="1.36"/>
		<polyline points="55.12,-1.19 52.91,3.94 57.1,3.94 		"/>
		<polyline points="55.16,20.55 57.28,14.86 53.1,14.86 		"/>
	</g>
	<g>
		<polyline points="63.75,-45.17 61.28,-50.18 58.56,-46.99 		"/>
		<polyline points="9.28,-45.35 11.7,-50.38 14.45,-47.22 		"/>
		<g>
			<path class="st1" d="M11.76-47.5c6.7-5.57,15.3-8.92,24.69-8.92c9.63,0,18.43,3.52,25.2,9.34"/>
			<path class="st1" d="M11.76-47.5"/>
			<polyline class="st1" points="66.73,-48.03 36.46,-17.76 4.83,-49.39 			"/>
			<path class="st1" d="M61.65-47.08"/>
		</g>
	</g>
	<g>
		<line class="st0" x1="-10.97" y1="-4.71" x2="-52.74" y2="-28.83"/>
		<line class="st0" x1="21.34" y1="-23.63" x2="-19.44" y2="-47.18"/>
		<line class="st0" x1="-21.47" y1="-44.36" x2="-48.25" y2="-28.86"/>
		<polyline points="-50.43,-27.54 -41.67,-29.85 -46.18,-32.45 		"/>
		<polyline points="-18.09,-46.39 -27.05,-43.38 -22.57,-40.77 		"/>
	</g>
	<g>
		<line class="st0" x1="-16.71" y1="2.08" x2="-59.31" y2="26.67"/>
		<line class="st0" x1="20.49" y1="31.5" x2="-14.94" y2="51.95"/>
		<line class="st0" x1="-4.33" y1="56.44" x2="-66.63" y2="20.36"/>
		<polyline points="-13.52,51.13 -4.76,53.44 -9.27,56.05 		"/>
		<polyline points="-57.45,25.67 -66.41,22.66 -61.93,20.05 		"/>
	</g>
	<text transform="matrix(0.75 -0.433 -0.866 -0.5 -36.4368 -30.7207)" style="font-family:'ArialMT'; font-size:13.8564px;">35</text>
	<text transform="matrix(0.75 0.433 0.866 -0.5 -42.3684 37.5683)" style="font-family:'ArialMT'; font-size:13.8564px;">30</text>
</symbol>
<g>
	<g>
		<path class="st2" d="M212.06,547.68l84.81-0.14c41.12,0,75.1-30.58,80.45-70.24l-164.66,0.17l0,0
			c-53.04,0-97.3-39.88-102.78-91.47H39.58l0,0C45.46,476.15,120.43,547.68,212.06,547.68"/>
		<path d="M132.63,386.77c5.97,38.94,39.65,68.76,80.26,68.76l0,0l163.82,0.04c-5.98-38.94-39.63-68.76-80.24-68.76L132.63,386.77
			L132.63,386.77z"/>
		<path class="st2" d="M296.66,294.21l-84.81,0.14c-41.12,0-75.1,30.57-80.46,70.23l164.67-0.17l0,0
			c53.05,0,97.3,39.88,102.78,91.47h70.31l0,0C463.27,365.74,388.29,294.21,296.66,294.21"/>
	</g>
	<path d="M526.26,439.85c0,14.97,11.43,20.8,24.39,20.8c8.5,0,21.46-2.52,21.46-14.02c0-12.13-16.52-14.18-32.73-18.59
		c-16.37-4.42-32.89-10.88-32.89-31.99c0-23,21.31-34.03,41.22-34.03c23.01,0,44.16,10.24,44.16,36.23h-23.47
		c-0.77-13.55-10.19-17.02-21.76-17.02c-7.72,0-16.68,3.31-16.68,12.76c0,8.67,5.25,9.77,32.89,17.01
		c8.03,2.05,32.74,7.26,32.74,32.78c0,20.64-15.91,36.07-45.86,36.07c-24.4,0-47.25-12.29-46.94-40.02H526.26z"/>
	<path d="M640.62,393.32c-24.43,0-41.08,18.74-41.08,43.36c0,25.41,15.71,43.19,41.08,43.19c18.21,0,31.44-8.25,37.67-27.63h-19.46
		c-1.4,5.08-8.56,10.65-17.43,10.65c-12.3,0-19.14-6.52-19.77-20.81h58.05C681.24,416.82,668.02,393.32,640.62,393.32z
		 M621.63,427.78c0.32-6.35,4.35-17.47,18.36-17.47c10.75,0,15.57,6.04,17.6,17.47H621.63z"/>
	<polygon points="648.31,385.38 632.91,385.38 634.83,362.83 659.26,362.83 	"/>
	<path d="M741.47,424.44c-1.39-9.21-7.15-14.14-16.34-14.14c-14.16,0-18.83,14.61-18.83,26.68c0,11.76,4.51,25.89,18.36,25.89
		c10.27,0,16.19-6.67,17.59-16.68h21.32c-2.8,21.75-17.59,33.67-38.75,33.67c-24.28,0-40.62-17.47-40.62-42.08
		c0-25.57,14.95-44.47,41.09-44.47c18.99,0,36.42,10.17,37.82,31.13H741.47z"/>
	<path d="M767.75,364.25h22.09v42.72h0.47c5.6-9.21,15.25-13.65,23.5-13.65c23.5,0,29.41,13.5,29.41,33.83v50.49h-22.1v-46.36
		c0-13.5-3.89-20.17-14.16-20.17c-11.98,0-17.12,6.83-17.12,23.51v43.03h-22.09V364.25z"/>
	<path d="M892.77,393.32c-24.43,0-43.7,18.74-43.7,43.36c0,25.41,18.33,43.19,43.7,43.19c18.21,0,31.43-8.26,37.66-27.64h-19.45
		c-1.41,5.09-8.56,10.65-17.44,10.65c-12.29,0-19.14-6.51-19.76-20.8h58.05C933.38,416.83,920.16,393.32,892.77,393.32z
		 M873.78,427.78c0.3-6.36,4.36-17.47,18.37-17.47c10.74,0,15.56,6.04,17.59,17.47H873.78z"/>
	<path d="M937.03,395.55h21v15.24h0.31c4.04-10.32,14.94-17.47,25.69-17.47c1.55,0,3.42,0.32,4.82,0.79v20.96
		c-2.03-0.48-5.3-0.79-7.94-0.79c-16.19,0-21.79,11.9-21.79,26.36v36.99h-22.09V395.55z"/>
	<path d="M1029.32,393.32c-25.21,0-41.55,17.15-41.55,43.36c0,26.04,16.34,43.19,41.55,43.19c25.36,0,41.7-17.16,41.7-43.19
		C1071.02,410.47,1054.68,393.32,1029.32,393.32z M1029.32,462.88c-14.94,0-19.45-13.19-19.45-26.2c0-13.19,4.51-26.37,19.45-26.37
		c15.09,0,19.6,13.18,19.6,26.37C1048.92,449.69,1044.41,462.88,1029.32,462.88z"/>
	<path d="M1075.5,395.55h21.01v11.43h0.47c5.6-9.21,15.25-13.65,24.59-13.65c23.5,0,29.41,13.5,29.41,33.83v50.49h-22.09v-46.36
		c0-13.5-3.9-20.17-14.17-20.17c-11.98,0-17.12,6.83-17.12,23.51v43.03h-22.1V395.55z"/>
</g>
</svg>
